<svg width="362" height="192" viewBox="0 0 362 192" fill="none" xmlns="http://www.w3.org/2000/svg">
<path d="M0.5 182V34.9187C0.5 32.393 1.5058 29.9712 3.29513 28.1886L28.3078 3.26986C30.0883 1.49599 32.4993 0.5 35.0126 0.5H330.991C333.504 0.5 335.915 1.49599 337.695 3.26986L358.705 24.2005C360.494 25.9831 361.5 28.4049 361.5 30.9306V182C361.5 187.247 357.247 191.5 352 191.5H10C4.75329 191.5 0.5 187.247 0.5 182Z" fill="url(#paint0_linear_405_285)" stroke="url(#paint1_linear_405_285)"/>
<path d="M327.974 34.941L320.952 27.8943C320.036 27.0304 318.835 26.5347 317.578 26.5015C316.322 26.4683 315.096 26.9 314.136 27.7143L291.073 50.8603C290.245 51.6986 289.729 52.7974 289.613 53.9721L288.511 64.6965C288.476 65.0732 288.525 65.4528 288.653 65.8085C288.782 66.1641 288.987 66.4869 289.254 66.7539C289.493 66.9923 289.777 67.1808 290.09 67.3088C290.402 67.4368 290.736 67.5017 291.073 67.4997H291.304L301.99 66.5224C303.16 66.4054 304.255 65.8878 305.09 65.0565L328.153 41.9105C329.048 40.9614 329.532 39.6949 329.498 38.3885C329.465 37.0821 328.916 35.8424 327.974 34.941V34.941ZM301.528 61.3789L293.841 62.099L294.533 54.3836L309.011 40.0331L315.93 46.9769L301.528 61.3789ZM319.261 43.5307L312.394 36.6383L317.39 31.4948L324.386 38.5157L319.261 43.5307Z" fill="url(#paint2_linear_405_285)"/>
<defs>
<linearGradient id="paint0_linear_405_285" x1="8.09923" y1="204" x2="380.209" y2="110.016" gradientUnits="userSpaceOnUse">
<stop stop-color="#212126"/>
<stop offset="1" stop-color="#414148"/>
</linearGradient>
<linearGradient id="paint1_linear_405_285" x1="76.7957" y1="-16.959" x2="167.739" y2="202.612" gradientUnits="userSpaceOnUse">
<stop stop-color="#65636F"/>
<stop offset="1"/>
</linearGradient>
<linearGradient id="paint2_linear_405_285" x1="309" y1="26.4998" x2="309" y2="67.4998" gradientUnits="userSpaceOnUse">
<stop stop-color="#86ACD1"/>
<stop offset="1" stop-color="#6798C4"/>
</linearGradient>
</defs>
</svg>
