<svg width="362" height="221" viewBox="0 0 362 221" fill="none" xmlns="http://www.w3.org/2000/svg">
<g filter="url(#filter0_d_336_1317)">
<path d="M0 35.4125V201C0 212.046 8.9543 221 20 221H342C353.046 221 362 212.046 362 201V30.822V20C362 8.95431 353.046 0 342 0H20C8.9543 0 0 8.9543 0 20V35.4125Z" fill="url(#paint0_linear_336_1317)"/>
<path d="M0.5 201V35.4125V20C0.5 9.23044 9.23045 0.5 20 0.5H342C352.77 0.5 361.5 9.23045 361.5 20V30.822V201C361.5 211.77 352.77 220.5 342 220.5H20C9.23045 220.5 0.5 211.77 0.5 201Z" stroke="url(#paint1_linear_336_1317)"/>
</g>
<path d="M116.026 72.3913L115.511 72.6149C114.78 72.9318 114.117 73.2281 113.522 73.5039C112.884 73.8062 112.067 74.1121 111.084 74.4241L111.079 74.426C110.225 74.6902 109.301 74.9108 108.308 75.0891C107.295 75.2871 106.188 75.3835 104.992 75.3835C102.741 75.3835 100.67 75.0729 98.7859 74.4396L98.7786 74.4371C96.8905 73.7833 95.2385 72.7636 93.8322 71.3806C92.443 70.0148 91.3736 68.2957 90.6123 66.2506C89.8458 64.1774 89.473 61.8016 89.473 59.1388C89.473 56.6069 89.833 54.3143 90.5698 52.2731C91.305 50.2362 92.3734 48.4949 93.7827 47.0662C95.1483 45.6808 96.7921 44.6285 98.6975 43.908C100.616 43.1878 102.725 42.8341 105.013 42.8341C106.691 42.8341 108.36 43.0357 110.02 43.4376C111.708 43.8429 113.553 44.549 115.551 45.5416L116.026 45.7778V51.8616H114.558L114.32 51.6635C112.727 50.3375 111.17 49.3923 109.652 48.8065C108.134 48.2207 106.503 47.9247 104.751 47.9247C103.329 47.9247 102.073 48.1557 100.969 48.6017L100.964 48.6036C99.885 49.0325 98.9099 49.7084 98.0378 50.6481C97.2084 51.5439 96.54 52.6987 96.0486 54.1375C95.5753 55.5494 95.3295 57.212 95.3295 59.1388C95.3295 61.1558 95.6013 62.8466 96.1188 64.2315C96.6639 65.6538 97.3468 66.7746 98.1506 67.6212C99.0021 68.5156 99.987 69.1755 101.111 69.6087C102.271 70.0372 103.496 70.253 104.791 70.253C105.641 70.253 106.463 70.1856 107.257 70.0513C108.163 69.8981 109.034 69.6581 109.871 69.3322C111.443 68.7197 112.926 67.7974 114.318 66.5538L114.561 66.3361H116.026V72.3913Z" fill="#828282"/>
<path fill-rule="evenodd" clip-rule="evenodd" d="M130.967 40.9524L114.718 26.6675H84.3451C80.3317 26.6675 77.0781 29.921 77.0781 33.9345V84.0671C77.0781 88.0806 80.3317 91.3341 84.3451 91.3341H123.7C127.713 91.3341 130.967 88.0806 130.967 84.0672V40.9524ZM113.363 30.2601L127.374 42.5775V84.0672C127.374 86.0965 125.729 87.7416 123.7 87.7416H84.3451C82.3158 87.7416 80.6707 86.0965 80.6707 84.0671V33.9345C80.6707 31.9052 82.3158 30.2601 84.3451 30.2601H113.363Z" fill="#828282"/>
<circle cx="336" cy="27" r="9" transform="rotate(-90 336 27)" fill="#5B85AB"/>
<path d="M80.6897 45.2759L80.4 45H80H42.0911C39.2794 45 37 47.2794 37 50.0911V121.909C37 124.721 39.2794 127 42.0911 127H93.9089C96.7206 127 99 124.721 99 121.909V63.1429V62.7143L98.6897 62.4187L89.6897 53.8473L80.6897 45.2759Z" fill="url(#paint2_linear_336_1317)" stroke="white" stroke-width="2"/>
<path fill-rule="evenodd" clip-rule="evenodd" d="M86.5209 106.542L87.1652 106.262V98.6995H85.3354L85.0309 98.9715C83.2922 100.525 81.4409 101.677 79.4769 102.442C78.4317 102.849 77.3441 103.148 76.2124 103.34C75.2199 103.507 74.1936 103.592 73.1325 103.592C71.515 103.592 69.9851 103.322 68.536 102.787C67.132 102.246 65.9018 101.422 64.8383 100.305C63.8343 99.2472 62.9815 97.8473 62.3007 96.0708C61.6543 94.3411 61.3148 92.2294 61.3148 89.7101C61.3148 87.3036 61.6217 85.2269 62.213 83.4635C62.8266 81.6665 63.6615 80.2241 64.6974 79.1052C65.7867 77.9316 67.0045 77.0873 68.3525 76.5516L68.3581 76.5494C69.737 75.9923 71.3065 75.7037 73.0822 75.7037C75.2702 75.7037 77.3077 76.0734 79.2036 76.8051C81.0995 77.5368 83.0436 78.7173 85.0343 80.3735L85.3317 80.621H87.1652V73.0222L86.5713 72.7272C84.076 71.4875 81.7718 70.6056 79.6637 70.0993C77.5903 69.5973 75.5048 69.3456 73.4088 69.3456C70.5512 69.3456 67.9179 69.7873 65.5214 70.6869C63.1416 71.5868 61.0884 72.9011 59.3828 74.6314C57.6226 76.416 56.2881 78.5908 55.3699 81.1348C54.4497 83.6843 54 86.5478 54 89.7101C54 93.036 54.4656 96.0034 55.423 98.5927C56.3738 101.147 57.7096 103.294 59.4446 105C61.2011 106.728 63.2644 108.001 65.6227 108.818L65.6273 108.819L65.6318 108.821C67.9847 109.612 70.5722 110 73.3837 110C74.8772 110 76.2592 109.879 77.5249 109.632C78.7647 109.409 79.9188 109.134 80.9853 108.804L80.9927 108.801C82.2203 108.412 83.2406 108.03 84.0374 107.652C84.7804 107.308 85.6081 106.938 86.5209 106.542Z" fill="white"/>
<path fill-rule="evenodd" clip-rule="evenodd" d="M83.3608 102.989L84.005 102.71V95.1468H82.1752L81.8708 95.4188C80.1321 96.972 78.2808 98.124 76.3167 98.889C75.2716 99.296 74.1839 99.5958 73.0523 99.7871C72.0597 99.9548 71.0334 100.039 69.9723 100.039C68.3548 100.039 66.825 99.7696 65.3759 99.2344C63.9719 98.6933 62.7417 97.869 61.6782 96.752C60.6742 95.6946 59.8213 94.2946 59.1405 92.5182C58.4941 90.7884 58.1546 88.6767 58.1546 86.1575C58.1546 83.7509 58.4616 81.6743 59.0528 79.9108C59.6665 78.1138 60.5013 76.6714 61.5372 75.5525C62.6265 74.3789 63.8444 73.5347 65.1923 72.9989L65.1979 72.9967C66.5769 72.4396 68.1463 72.151 69.9221 72.151C72.1101 72.151 74.1475 72.5207 76.0434 73.2524C77.9394 73.9841 79.8835 75.1646 81.8741 76.8209L82.1715 77.0683H84.005V69.4696L83.4112 69.1745C80.9158 67.9349 78.6116 67.0529 76.5036 66.5466C74.4301 66.0447 72.3446 65.793 70.2487 65.793C67.391 65.793 64.7578 66.2347 62.3613 67.1342C59.9814 68.0341 57.9283 69.3484 56.2226 71.0787C54.4625 72.8633 53.128 75.0381 52.2097 77.5822C51.2895 80.1316 50.8398 82.9951 50.8398 86.1575C50.8398 89.4833 51.3055 92.4507 52.2628 95.0401C53.2137 97.5945 54.5494 99.7415 56.2845 101.447C58.0409 103.175 60.1042 104.448 62.4625 105.265L62.4671 105.267L62.4717 105.268C64.8245 106.059 67.412 106.447 70.2235 106.447C71.717 106.447 73.099 106.327 74.3648 106.079C75.6045 105.857 76.7586 105.581 77.8252 105.251L77.8325 105.249C79.0602 104.859 80.0804 104.477 80.8773 104.099C81.6203 103.755 82.4479 103.385 83.3608 102.989Z" fill="#29435D"/>
<path d="M80 63.1175V46L98 63.1175H80Z" fill="#73A4D5"/>
<path d="M38 118H98V122C98 124.209 96.2091 126 94 126H42C39.7909 126 38 124.209 38 122V118Z" fill="#73A4D5"/>
<defs>
<filter id="filter0_d_336_1317" x="-9" y="-6" width="380" height="239" filterUnits="userSpaceOnUse" color-interpolation-filters="sRGB">
<feFlood flood-opacity="0" result="BackgroundImageFix"/>
<feColorMatrix in="SourceAlpha" type="matrix" values="0 0 0 0 0 0 0 0 0 0 0 0 0 0 0 0 0 0 127 0" result="hardAlpha"/>
<feOffset dy="3"/>
<feGaussianBlur stdDeviation="4.5"/>
<feColorMatrix type="matrix" values="0 0 0 0 0 0 0 0 0 0 0 0 0 0 0 0 0 0 0.17 0"/>
<feBlend mode="normal" in2="BackgroundImageFix" result="effect1_dropShadow_336_1317"/>
<feBlend mode="normal" in="SourceGraphic" in2="effect1_dropShadow_336_1317" result="shape"/>
</filter>
<linearGradient id="paint0_linear_336_1317" x1="8.09923" y1="234.813" x2="385.763" y2="151.942" gradientUnits="userSpaceOnUse">
<stop stop-color="#212126"/>
<stop offset="1" stop-color="#43434B"/>
</linearGradient>
<linearGradient id="paint1_linear_336_1317" x1="76.7957" y1="-19.5205" x2="191.814" y2="221.737" gradientUnits="userSpaceOnUse">
<stop stop-color="#65636F"/>
<stop offset="1"/>
</linearGradient>
<linearGradient id="paint2_linear_336_1317" x1="67.7989" y1="46" x2="67.7989" y2="116.241" gradientUnits="userSpaceOnUse">
<stop stop-color="#E1EFFF"/>
<stop offset="1" stop-color="#A3CEFF"/>
</linearGradient>
</defs>
</svg>
