<svg width="362" height="221" viewBox="0 0 362 221" fill="none" xmlns="http://www.w3.org/2000/svg">
<g filter="url(#filter0_d_336_1317)">
<path d="M0 35.4125V201C0 212.046 8.9543 221 20 221H342C353.046 221 362 212.046 362 201V30.822V20C362 8.95431 353.046 0 342 0H20C8.9543 0 0 8.9543 0 20V35.4125Z" fill="url(#paint0_linear_336_1317)"/>
<path d="M0.5 201V35.4125V20C0.5 9.23044 9.23045 0.5 20 0.5H342C352.77 0.5 361.5 9.23045 361.5 20V30.822V201C361.5 211.77 352.77 220.5 342 220.5H20C9.23045 220.5 0.5 211.77 0.5 201Z" stroke="url(#paint1_linear_336_1317)"/>
</g>
<path d="M116.026 72.3913L115.511 72.6149C114.78 72.9318 114.117 73.2281 113.522 73.5039C112.884 73.8062 112.067 74.1121 111.084 74.4241L111.079 74.426C110.225 74.6902 109.301 74.9108 108.308 75.0891C107.295 75.2871 106.188 75.3835 104.992 75.3835C102.741 75.3835 100.67 75.0729 98.7859 74.4396L98.7786 74.4371C96.8905 73.7833 95.2385 72.7636 93.8322 71.3806C92.443 70.0148 91.3736 68.2957 90.6123 66.2506C89.8458 64.1774 89.473 61.8016 89.473 59.1388C89.473 56.6069 89.833 54.3143 90.5698 52.2731C91.305 50.2362 92.3734 48.4949 93.7827 47.0662C95.1483 45.6808 96.7921 44.6285 98.6975 43.908C100.616 43.1878 102.725 42.8341 105.013 42.8341C106.691 42.8341 108.36 43.0357 110.02 43.4376C111.708 43.8429 113.553 44.549 115.551 45.5416L116.026 45.7778V51.8616H114.558L114.32 51.6635C112.727 50.3375 111.17 49.3923 109.652 48.8065C108.134 48.2207 106.503 47.9247 104.751 47.9247C103.329 47.9247 102.073 48.1557 100.969 48.6017L100.964 48.6036C99.885 49.0325 98.9099 49.7084 98.0378 50.6481C97.2084 51.5439 96.54 52.6987 96.0486 54.1375C95.5753 55.5494 95.3295 57.212 95.3295 59.1388C95.3295 61.1558 95.6013 62.8466 96.1188 64.2315C96.6639 65.6538 97.3468 66.7746 98.1506 67.6212C99.0021 68.5156 99.987 69.1755 101.111 69.6087C102.271 70.0372 103.496 70.253 104.791 70.253C105.641 70.253 106.463 70.1856 107.257 70.0513C108.163 69.8981 109.034 69.6581 109.871 69.3322C111.443 68.7197 112.926 67.7974 114.318 66.5538L114.561 66.3361H116.026V72.3913Z" fill="#828282"/>
<path fill-rule="evenodd" clip-rule="evenodd" d="M130.967 40.9524L114.718 26.6675H84.3451C80.3317 26.6675 77.0781 29.921 77.0781 33.9345V84.0671C77.0781 88.0806 80.3317 91.3341 84.3451 91.3341H123.7C127.713 91.3341 130.967 88.0806 130.967 84.0671V40.9524ZM113.363 30.2601L127.374 42.5775V84.0671C127.374 86.0965 125.729 87.7416 123.7 87.7416H84.3451C82.3158 87.7416 80.6707 86.0965 80.6707 84.0671V33.9345C80.6707 31.9052 82.3158 30.2601 84.3451 30.2601H113.363Z" fill="#828282"/>
<circle cx="336" cy="27" r="9" transform="rotate(-90 336 27)" fill="#5B85AB"/>
<rect x="121" y="123" width="229" height="40" rx="20" fill="#FA6334"/>
<path d="M150.08 137.8H151.248V149H150.08V137.8ZM143.072 149H141.888V137.8H143.072V149ZM150.192 143.832H142.944V142.792H150.192V143.832ZM158.357 149.08C157.482 149.08 156.714 148.899 156.053 148.536C155.391 148.163 154.874 147.656 154.501 147.016C154.127 146.365 153.941 145.624 153.941 144.792C153.941 143.96 154.117 143.224 154.469 142.584C154.831 141.944 155.322 141.443 155.941 141.08C156.57 140.707 157.274 140.52 158.053 140.52C158.842 140.52 159.541 140.701 160.149 141.064C160.767 141.416 161.253 141.917 161.605 142.568C161.957 143.208 162.133 143.949 162.133 144.792C162.133 144.845 162.127 144.904 162.117 144.968C162.117 145.021 162.117 145.08 162.117 145.144H154.805V144.296H161.509L161.061 144.632C161.061 144.024 160.927 143.485 160.661 143.016C160.405 142.536 160.053 142.163 159.605 141.896C159.157 141.629 158.639 141.496 158.053 141.496C157.477 141.496 156.959 141.629 156.501 141.896C156.042 142.163 155.685 142.536 155.429 143.016C155.173 143.496 155.045 144.045 155.045 144.664V144.84C155.045 145.48 155.183 146.045 155.461 146.536C155.749 147.016 156.143 147.395 156.645 147.672C157.157 147.939 157.738 148.072 158.389 148.072C158.901 148.072 159.375 147.981 159.813 147.8C160.261 147.619 160.645 147.341 160.965 146.968L161.605 147.704C161.231 148.152 160.762 148.493 160.197 148.728C159.642 148.963 159.029 149.08 158.357 149.08ZM168.103 149.08C167.293 149.08 166.562 148.899 165.911 148.536C165.271 148.163 164.765 147.656 164.391 147.016C164.018 146.365 163.831 145.624 163.831 144.792C163.831 143.949 164.018 143.208 164.391 142.568C164.765 141.928 165.271 141.427 165.911 141.064C166.551 140.701 167.282 140.52 168.103 140.52C168.935 140.52 169.671 140.701 170.311 141.064C170.962 141.427 171.469 141.928 171.831 142.568C172.205 143.208 172.391 143.949 172.391 144.792C172.391 145.624 172.205 146.365 171.831 147.016C171.469 147.656 170.962 148.163 170.311 148.536C169.661 148.899 168.925 149.08 168.103 149.08ZM168.103 148.072C168.711 148.072 169.25 147.939 169.719 147.672C170.189 147.395 170.557 147.011 170.823 146.52C171.101 146.019 171.239 145.443 171.239 144.792C171.239 144.131 171.101 143.555 170.823 143.064C170.557 142.573 170.189 142.195 169.719 141.928C169.25 141.651 168.717 141.512 168.119 141.512C167.522 141.512 166.989 141.651 166.519 141.928C166.05 142.195 165.677 142.573 165.399 143.064C165.122 143.555 164.983 144.131 164.983 144.792C164.983 145.443 165.122 146.019 165.399 146.52C165.677 147.011 166.05 147.395 166.519 147.672C166.989 147.939 167.517 148.072 168.103 148.072ZM178.595 149.096C177.912 149.096 177.304 148.984 176.771 148.76C176.248 148.536 175.8 148.195 175.427 147.736C175.054 147.277 174.771 146.712 174.579 146.04C174.387 145.357 174.291 144.568 174.291 143.672C174.291 142.872 174.366 142.173 174.515 141.576C174.664 140.968 174.872 140.445 175.139 140.008C175.406 139.571 175.715 139.203 176.067 138.904C176.43 138.595 176.819 138.349 177.235 138.168C177.662 137.976 178.099 137.832 178.547 137.736L182.323 136.856L182.515 137.912L178.963 138.712C178.739 138.765 178.467 138.84 178.147 138.936C177.838 139.032 177.518 139.176 177.187 139.368C176.867 139.56 176.568 139.827 176.291 140.168C176.014 140.509 175.79 140.952 175.619 141.496C175.459 142.029 175.379 142.696 175.379 143.496C175.379 143.667 175.384 143.805 175.395 143.912C175.406 144.008 175.416 144.115 175.427 144.232C175.448 144.339 175.464 144.499 175.475 144.712L174.979 144.296C175.096 143.645 175.336 143.08 175.699 142.6C176.062 142.109 176.515 141.731 177.059 141.464C177.614 141.187 178.227 141.048 178.899 141.048C179.678 141.048 180.371 141.219 180.979 141.56C181.587 141.891 182.062 142.355 182.403 142.952C182.755 143.549 182.931 144.243 182.931 145.032C182.931 145.811 182.75 146.509 182.387 147.128C182.035 147.747 181.534 148.232 180.883 148.584C180.232 148.925 179.47 149.096 178.595 149.096ZM178.723 148.152C179.32 148.152 179.848 148.019 180.307 147.752C180.766 147.475 181.123 147.101 181.379 146.632C181.646 146.163 181.779 145.635 181.779 145.048C181.779 144.472 181.646 143.96 181.379 143.512C181.123 143.064 180.766 142.712 180.307 142.456C179.848 142.189 179.315 142.056 178.707 142.056C178.11 142.056 177.582 142.184 177.123 142.44C176.664 142.685 176.302 143.032 176.035 143.48C175.779 143.928 175.651 144.445 175.651 145.032C175.651 145.619 175.779 146.147 176.035 146.616C176.302 147.085 176.664 147.459 177.123 147.736C177.592 148.013 178.126 148.152 178.723 148.152ZM183.693 149L187.245 144.392L187.229 144.952L183.853 140.6H185.133L187.901 144.2L187.421 144.184L190.189 140.6H191.437L188.029 145L188.045 144.392L191.629 149H190.333L187.405 145.16L187.853 145.224L184.973 149H183.693ZM196.65 149.08C195.839 149.08 195.109 148.899 194.458 148.536C193.818 148.163 193.311 147.656 192.938 147.016C192.565 146.365 192.378 145.624 192.378 144.792C192.378 143.949 192.565 143.208 192.938 142.568C193.311 141.928 193.818 141.427 194.458 141.064C195.098 140.701 195.829 140.52 196.65 140.52C197.482 140.52 198.218 140.701 198.858 141.064C199.509 141.427 200.015 141.928 200.378 142.568C200.751 143.208 200.938 143.949 200.938 144.792C200.938 145.624 200.751 146.365 200.378 147.016C200.015 147.656 199.509 148.163 198.858 148.536C198.207 148.899 197.471 149.08 196.65 149.08ZM196.65 148.072C197.258 148.072 197.797 147.939 198.266 147.672C198.735 147.395 199.103 147.011 199.37 146.52C199.647 146.019 199.786 145.443 199.786 144.792C199.786 144.131 199.647 143.555 199.37 143.064C199.103 142.573 198.735 142.195 198.266 141.928C197.797 141.651 197.263 141.512 196.666 141.512C196.069 141.512 195.535 141.651 195.066 141.928C194.597 142.195 194.223 142.573 193.946 143.064C193.669 143.555 193.53 144.131 193.53 144.792C193.53 145.443 193.669 146.019 193.946 146.52C194.223 147.011 194.597 147.395 195.066 147.672C195.535 147.939 196.063 148.072 196.65 148.072ZM209.079 148.456V141.592H205.031L204.935 143.464C204.914 144.029 204.876 144.584 204.823 145.128C204.78 145.672 204.7 146.173 204.583 146.632C204.476 147.08 204.322 147.448 204.119 147.736C203.916 148.013 203.655 148.173 203.335 148.216L202.199 148.008C202.53 148.019 202.802 147.901 203.015 147.656C203.228 147.4 203.394 147.053 203.511 146.616C203.628 146.179 203.714 145.683 203.767 145.128C203.82 144.563 203.863 143.987 203.895 143.4L204.007 140.6H210.215V148.456H209.079ZM201.847 151.032V148.008H211.527V151.032H210.455V149H202.919V151.032H201.847ZM213.741 149V140.6H214.877V147.272L220.493 140.6H221.501V149H220.365V142.312L214.765 149H213.741ZM224.757 149V140.6H225.909L229.717 147.048H229.237L233.109 140.6H234.165V149H233.125V141.896L233.333 141.992L229.717 147.976H229.205L225.557 141.928L225.797 141.88V149H224.757ZM242.613 149V147.144L242.565 146.84V143.736C242.565 143.021 242.363 142.472 241.957 142.088C241.563 141.704 240.971 141.512 240.181 141.512C239.637 141.512 239.12 141.603 238.629 141.784C238.139 141.965 237.723 142.205 237.381 142.504L236.869 141.656C237.296 141.293 237.808 141.016 238.405 140.824C239.003 140.621 239.632 140.52 240.293 140.52C241.381 140.52 242.219 140.792 242.805 141.336C243.403 141.869 243.701 142.685 243.701 143.784V149H242.613ZM239.717 149.08C239.088 149.08 238.539 148.979 238.069 148.776C237.611 148.563 237.259 148.275 237.013 147.912C236.768 147.539 236.645 147.112 236.645 146.632C236.645 146.195 236.747 145.8 236.949 145.448C237.163 145.085 237.504 144.797 237.973 144.584C238.453 144.36 239.093 144.248 239.893 144.248H242.789V145.096H239.925C239.115 145.096 238.549 145.24 238.229 145.528C237.92 145.816 237.765 146.173 237.765 146.6C237.765 147.08 237.952 147.464 238.325 147.752C238.699 148.04 239.221 148.184 239.893 148.184C240.533 148.184 241.083 148.04 241.541 147.752C242.011 147.453 242.352 147.027 242.565 146.472L242.821 147.256C242.608 147.811 242.235 148.253 241.701 148.584C241.179 148.915 240.517 149.08 239.717 149.08ZM250.913 149V140.6H258.465V149H257.329V141.288L257.617 141.592H251.761L252.049 141.288V149H250.913ZM266.03 149.08C265.305 149.08 264.649 148.915 264.062 148.584C263.475 148.243 263.006 147.757 262.654 147.128C262.313 146.488 262.142 145.709 262.142 144.792C262.142 143.875 262.313 143.101 262.654 142.472C262.995 141.832 263.459 141.347 264.046 141.016C264.633 140.685 265.294 140.52 266.03 140.52C266.83 140.52 267.545 140.701 268.174 141.064C268.814 141.416 269.315 141.917 269.678 142.568C270.041 143.208 270.222 143.949 270.222 144.792C270.222 145.645 270.041 146.392 269.678 147.032C269.315 147.672 268.814 148.173 268.174 148.536C267.545 148.899 266.83 149.08 266.03 149.08ZM261.694 152.104V140.6H262.782V143.128L262.67 144.808L262.83 146.504V152.104H261.694ZM265.95 148.072C266.547 148.072 267.081 147.939 267.55 147.672C268.019 147.395 268.393 147.011 268.67 146.52C268.947 146.019 269.086 145.443 269.086 144.792C269.086 144.141 268.947 143.571 268.67 143.08C268.393 142.589 268.019 142.205 267.55 141.928C267.081 141.651 266.547 141.512 265.95 141.512C265.353 141.512 264.814 141.651 264.334 141.928C263.865 142.205 263.491 142.589 263.214 143.08C262.947 143.571 262.814 144.141 262.814 144.792C262.814 145.443 262.947 146.019 263.214 146.52C263.491 147.011 263.865 147.395 264.334 147.672C264.814 147.939 265.353 148.072 265.95 148.072ZM276.119 149.08C275.308 149.08 274.578 148.899 273.927 148.536C273.287 148.163 272.78 147.656 272.407 147.016C272.034 146.365 271.847 145.624 271.847 144.792C271.847 143.949 272.034 143.208 272.407 142.568C272.78 141.928 273.287 141.427 273.927 141.064C274.567 140.701 275.298 140.52 276.119 140.52C276.951 140.52 277.687 140.701 278.327 141.064C278.978 141.427 279.484 141.928 279.847 142.568C280.22 143.208 280.407 143.949 280.407 144.792C280.407 145.624 280.22 146.365 279.847 147.016C279.484 147.656 278.978 148.163 278.327 148.536C277.676 148.899 276.94 149.08 276.119 149.08ZM276.119 148.072C276.727 148.072 277.266 147.939 277.735 147.672C278.204 147.395 278.572 147.011 278.839 146.52C279.116 146.019 279.255 145.443 279.255 144.792C279.255 144.131 279.116 143.555 278.839 143.064C278.572 142.573 278.204 142.195 277.735 141.928C277.266 141.651 276.732 141.512 276.135 141.512C275.538 141.512 275.004 141.651 274.535 141.928C274.066 142.195 273.692 142.573 273.415 143.064C273.138 143.555 272.999 144.131 272.999 144.792C272.999 145.443 273.138 146.019 273.415 146.52C273.692 147.011 274.066 147.395 274.535 147.672C275.004 147.939 275.532 148.072 276.119 148.072ZM282.835 149V140.6H286.547C287.496 140.6 288.243 140.781 288.787 141.144C289.341 141.507 289.619 142.04 289.619 142.744C289.619 143.427 289.357 143.955 288.835 144.328C288.312 144.691 287.624 144.872 286.771 144.872L286.995 144.536C287.997 144.536 288.733 144.723 289.203 145.096C289.672 145.469 289.907 146.008 289.907 146.712C289.907 147.437 289.64 148.003 289.107 148.408C288.584 148.803 287.768 149 286.659 149H282.835ZM283.939 148.104H286.611C287.325 148.104 287.864 147.992 288.227 147.768C288.6 147.533 288.787 147.16 288.787 146.648C288.787 146.136 288.621 145.763 288.291 145.528C287.96 145.293 287.437 145.176 286.723 145.176H283.939V148.104ZM283.939 144.328H286.467C287.117 144.328 287.613 144.205 287.955 143.96C288.307 143.715 288.483 143.357 288.483 142.888C288.483 142.419 288.307 142.067 287.955 141.832C287.613 141.597 287.117 141.48 286.467 141.48H283.939V144.328ZM296.169 149.08C295.294 149.08 294.526 148.899 293.865 148.536C293.204 148.163 292.686 147.656 292.313 147.016C291.94 146.365 291.753 145.624 291.753 144.792C291.753 143.96 291.929 143.224 292.281 142.584C292.644 141.944 293.134 141.443 293.753 141.08C294.382 140.707 295.086 140.52 295.865 140.52C296.654 140.52 297.353 140.701 297.961 141.064C298.58 141.416 299.065 141.917 299.417 142.568C299.769 143.208 299.945 143.949 299.945 144.792C299.945 144.845 299.94 144.904 299.929 144.968C299.929 145.021 299.929 145.08 299.929 145.144H292.617V144.296H299.321L298.873 144.632C298.873 144.024 298.74 143.485 298.473 143.016C298.217 142.536 297.865 142.163 297.417 141.896C296.969 141.629 296.452 141.496 295.865 141.496C295.289 141.496 294.772 141.629 294.313 141.896C293.854 142.163 293.497 142.536 293.241 143.016C292.985 143.496 292.857 144.045 292.857 144.664V144.84C292.857 145.48 292.996 146.045 293.273 146.536C293.561 147.016 293.956 147.395 294.457 147.672C294.969 147.939 295.55 148.072 296.201 148.072C296.713 148.072 297.188 147.981 297.625 147.8C298.073 147.619 298.457 147.341 298.777 146.968L299.417 147.704C299.044 148.152 298.574 148.493 298.009 148.728C297.454 148.963 296.841 149.08 296.169 149.08ZM306.796 149.08C306.07 149.08 305.414 148.915 304.828 148.584C304.241 148.243 303.772 147.757 303.42 147.128C303.078 146.488 302.908 145.709 302.908 144.792C302.908 143.875 303.078 143.101 303.42 142.472C303.761 141.832 304.225 141.347 304.812 141.016C305.398 140.685 306.06 140.52 306.796 140.52C307.596 140.52 308.31 140.701 308.94 141.064C309.58 141.416 310.081 141.917 310.444 142.568C310.806 143.208 310.988 143.949 310.988 144.792C310.988 145.645 310.806 146.392 310.444 147.032C310.081 147.672 309.58 148.173 308.94 148.536C308.31 148.899 307.596 149.08 306.796 149.08ZM302.46 152.104V140.6H303.548V143.128L303.436 144.808L303.596 146.504V152.104H302.46ZM306.716 148.072C307.313 148.072 307.846 147.939 308.316 147.672C308.785 147.395 309.158 147.011 309.436 146.52C309.713 146.019 309.852 145.443 309.852 144.792C309.852 144.141 309.713 143.571 309.436 143.08C309.158 142.589 308.785 142.205 308.316 141.928C307.846 141.651 307.313 141.512 306.716 141.512C306.118 141.512 305.58 141.651 305.1 141.928C304.63 142.205 304.257 142.589 303.98 143.08C303.713 143.571 303.58 144.141 303.58 144.792C303.58 145.443 303.713 146.019 303.98 146.52C304.257 147.011 304.63 147.395 305.1 147.672C305.58 147.939 306.118 148.072 306.716 148.072ZM319.589 149L316.133 144.84L317.077 144.28L320.933 149H319.589ZM313.429 149V140.6H314.565V149H313.429ZM314.213 145.256V144.28H316.917V145.256H314.213ZM317.173 144.92L316.117 144.76L319.461 140.6H320.693L317.173 144.92ZM327.785 149V147.144L327.737 146.84V143.736C327.737 143.021 327.534 142.472 327.129 142.088C326.734 141.704 326.142 141.512 325.353 141.512C324.809 141.512 324.292 141.603 323.801 141.784C323.31 141.965 322.894 142.205 322.553 142.504L322.041 141.656C322.468 141.293 322.98 141.016 323.577 140.824C324.174 140.621 324.804 140.52 325.465 140.52C326.553 140.52 327.39 140.792 327.977 141.336C328.574 141.869 328.873 142.685 328.873 143.784V149H327.785ZM324.889 149.08C324.26 149.08 323.71 148.979 323.241 148.776C322.782 148.563 322.43 148.275 322.185 147.912C321.94 147.539 321.817 147.112 321.817 146.632C321.817 146.195 321.918 145.8 322.121 145.448C322.334 145.085 322.676 144.797 323.145 144.584C323.625 144.36 324.265 144.248 325.065 144.248H327.961V145.096H325.097C324.286 145.096 323.721 145.24 323.401 145.528C323.092 145.816 322.937 146.173 322.937 146.6C322.937 147.08 323.124 147.464 323.497 147.752C323.87 148.04 324.393 148.184 325.065 148.184C325.705 148.184 326.254 148.04 326.713 147.752C327.182 147.453 327.524 147.027 327.737 146.472L327.993 147.256C327.78 147.811 327.406 148.253 326.873 148.584C326.35 148.915 325.689 149.08 324.889 149.08Z" fill="white"/>
<path d="M99 62.7143L98.6897 62.4187L89.6897 53.8473L80.6897 45.2759L80.4 45H80H42.0911C39.2794 45 37 47.2794 37 50.0911V121.909C37 124.721 39.2794 127 42.0911 127H93.9089C96.7206 127 99 124.721 99 121.909V63.1429V62.7143Z" fill="url(#paint2_linear_336_1317)" stroke="white" stroke-width="2"/>
<path fill-rule="evenodd" clip-rule="evenodd" d="M86.5209 106.542L87.1652 106.262V98.6995H85.3354L85.0309 98.9715C83.2922 100.525 81.4409 101.677 79.4769 102.442C78.4317 102.849 77.3441 103.148 76.2124 103.34C75.2199 103.507 74.1936 103.592 73.1325 103.592C71.515 103.592 69.9851 103.322 68.536 102.787C67.132 102.246 65.9018 101.422 64.8383 100.305C63.8343 99.2472 62.9815 97.8473 62.3007 96.0708C61.6543 94.3411 61.3148 92.2294 61.3148 89.7101C61.3148 87.3036 61.6217 85.2269 62.213 83.4635C62.8266 81.6665 63.6615 80.2241 64.6974 79.1052C65.7867 77.9316 67.0045 77.0873 68.3525 76.5516L68.3581 76.5494C69.737 75.9923 71.3065 75.7037 73.0822 75.7037C75.2702 75.7037 77.3077 76.0734 79.2036 76.8051C81.0995 77.5368 83.0436 78.7173 85.0343 80.3735L85.3317 80.621H87.1652V73.0222L86.5713 72.7272C84.076 71.4875 81.7718 70.6056 79.6637 70.0993C77.5903 69.5973 75.5048 69.3456 73.4088 69.3456C70.5512 69.3456 67.9179 69.7873 65.5214 70.6869C63.1416 71.5868 61.0884 72.9011 59.3828 74.6314C57.6226 76.416 56.2881 78.5908 55.3699 81.1348C54.4497 83.6843 54 86.5478 54 89.7101C54 93.036 54.4656 96.0034 55.423 98.5927C56.3738 101.147 57.7096 103.294 59.4446 105C61.2011 106.728 63.2644 108.001 65.6227 108.818L65.6273 108.819L65.6318 108.821C67.9847 109.612 70.5722 110 73.3837 110C74.8772 110 76.2592 109.879 77.5249 109.632C78.7647 109.409 79.9188 109.134 80.9853 108.804L80.9927 108.801C82.2203 108.412 83.2406 108.03 84.0374 107.652C84.7804 107.308 85.6081 106.938 86.5209 106.542Z" fill="white"/>
<path fill-rule="evenodd" clip-rule="evenodd" d="M83.3608 102.989L84.005 102.71V95.1468H82.1752L81.8708 95.4188C80.1321 96.972 78.2808 98.124 76.3167 98.889C75.2716 99.296 74.1839 99.5958 73.0523 99.7871C72.0597 99.9548 71.0334 100.039 69.9723 100.039C68.3548 100.039 66.825 99.7696 65.3759 99.2344C63.9718 98.6933 62.7417 97.869 61.6782 96.752C60.6742 95.6946 59.8213 94.2946 59.1405 92.5182C58.4941 90.7884 58.1546 88.6767 58.1546 86.1575C58.1546 83.7509 58.4616 81.6743 59.0528 79.9108C59.6665 78.1138 60.5013 76.6714 61.5372 75.5525C62.6265 74.3789 63.8444 73.5347 65.1923 72.9989L65.1979 72.9967C66.5769 72.4396 68.1463 72.151 69.9221 72.151C72.1101 72.151 74.1475 72.5207 76.0434 73.2524C77.9394 73.9841 79.8835 75.1646 81.8741 76.8209L82.1715 77.0683H84.005V69.4696L83.4112 69.1745C80.9158 67.9349 78.6116 67.0529 76.5036 66.5466C74.4301 66.0447 72.3446 65.793 70.2487 65.793C67.391 65.793 64.7578 66.2347 62.3613 67.1342C59.9814 68.0341 57.9283 69.3484 56.2226 71.0787C54.4625 72.8633 53.128 75.0381 52.2097 77.5822C51.2895 80.1316 50.8398 82.9951 50.8398 86.1575C50.8398 89.4833 51.3055 92.4507 52.2628 95.0401C53.2137 97.5945 54.5494 99.7415 56.2845 101.447C58.0409 103.175 60.1042 104.448 62.4625 105.265L62.4671 105.267L62.4717 105.268C64.8245 106.059 67.412 106.447 70.2235 106.447C71.717 106.447 73.099 106.327 74.3648 106.079C75.6045 105.857 76.7586 105.581 77.8252 105.251L77.8325 105.249C79.0602 104.859 80.0804 104.477 80.8773 104.099C81.6203 103.755 82.4479 103.385 83.3608 102.989Z" fill="#29435D"/>
<path d="M80 63.1175V46L98 63.1175H80Z" fill="#73A4D5"/>
<path d="M38 118H98V122C98 124.209 96.2091 126 94 126H42C39.7909 126 38 124.209 38 122V118Z" fill="#73A4D5"/>
<defs>
<filter id="filter0_d_336_1317" x="-9" y="-6" width="380" height="239" filterUnits="userSpaceOnUse" color-interpolation-filters="sRGB">
<feFlood flood-opacity="0" result="BackgroundImageFix"/>
<feColorMatrix in="SourceAlpha" type="matrix" values="0 0 0 0 0 0 0 0 0 0 0 0 0 0 0 0 0 0 127 0" result="hardAlpha"/>
<feOffset dy="3"/>
<feGaussianBlur stdDeviation="4.5"/>
<feColorMatrix type="matrix" values="0 0 0 0 0 0 0 0 0 0 0 0 0 0 0 0 0 0 0.17 0"/>
<feBlend mode="normal" in2="BackgroundImageFix" result="effect1_dropShadow_336_1317"/>
<feBlend mode="normal" in="SourceGraphic" in2="effect1_dropShadow_336_1317" result="shape"/>
</filter>
<linearGradient id="paint0_linear_336_1317" x1="8.09923" y1="234.813" x2="385.763" y2="151.942" gradientUnits="userSpaceOnUse">
<stop stop-color="#212126"/>
<stop offset="1" stop-color="#43434B"/>
</linearGradient>
<linearGradient id="paint1_linear_336_1317" x1="76.7957" y1="-19.5205" x2="191.814" y2="221.737" gradientUnits="userSpaceOnUse">
<stop stop-color="#65636F"/>
<stop offset="1"/>
</linearGradient>
<linearGradient id="paint2_linear_336_1317" x1="67.7989" y1="46" x2="67.7989" y2="116.241" gradientUnits="userSpaceOnUse">
<stop stop-color="#E1EFFF"/>
<stop offset="1" stop-color="#A3CEFF"/>
</linearGradient>
</defs>
</svg>
