<svg width="362" height="192" viewBox="0 0 362 192" fill="none" xmlns="http://www.w3.org/2000/svg">
<path d="M0.5 182V34.9187C0.5 32.393 1.5058 29.9712 3.29513 28.1886L28.3078 3.26986C30.0883 1.49599 32.4993 0.5 35.0126 0.5H330.991C333.504 0.5 335.915 1.49599 337.695 3.26986L358.705 24.2005C360.494 25.9831 361.5 28.4049 361.5 30.9306V182C361.5 187.247 357.247 191.5 352 191.5H10C4.75329 191.5 0.5 187.247 0.5 182Z" fill="url(#paint0_linear_336_1314)" stroke="url(#paint1_linear_336_1314)"/>
<rect x="289.708" y="27.7083" width="37.5833" height="37.5833" fill="url(#paint2_linear_336_1314)"/>
<rect x="289.708" y="27.7083" width="37.5833" height="37.5833" stroke="url(#paint3_linear_336_1314)" stroke-width="3.41667"/>
<path d="M327.974 34.9417L320.953 27.895C320.036 27.0311 318.836 26.5355 317.579 26.5023C316.322 26.4691 315.097 26.9007 314.137 27.715L291.074 50.861C290.245 51.6993 289.73 52.7981 289.613 53.9729L288.511 64.6972C288.477 65.0739 288.525 65.4536 288.654 65.8092C288.782 66.1648 288.987 66.4876 289.254 66.7546C289.494 66.993 289.778 67.1816 290.09 67.3095C290.402 67.4375 290.737 67.5024 291.074 67.5004H291.304L301.99 66.5232C303.161 66.4061 304.256 65.8885 305.091 65.0573L328.154 41.9112C329.049 40.9621 329.532 39.6957 329.499 38.3893C329.465 37.0829 328.917 35.8431 327.974 34.9417V34.9417ZM301.529 61.3796L293.841 62.0997L294.533 54.3844L309.011 40.0338L315.93 46.9776L301.529 61.3796ZM319.262 43.5314L312.394 36.6391L317.391 31.4955L324.387 38.5165L319.262 43.5314Z" fill="url(#paint4_linear_336_1314)"/>
<defs>
<linearGradient id="paint0_linear_336_1314" x1="8.09923" y1="204" x2="380.209" y2="110.016" gradientUnits="userSpaceOnUse">
<stop stop-color="#212126"/>
<stop offset="1" stop-color="#414148"/>
</linearGradient>
<linearGradient id="paint1_linear_336_1314" x1="76.7957" y1="-16.959" x2="167.739" y2="202.612" gradientUnits="userSpaceOnUse">
<stop stop-color="#65636F"/>
<stop offset="1"/>
</linearGradient>
<linearGradient id="paint2_linear_336_1314" x1="288.917" y1="69.5625" x2="332.961" y2="63.6625" gradientUnits="userSpaceOnUse">
<stop stop-color="#212126"/>
<stop offset="1" stop-color="#414148"/>
</linearGradient>
<linearGradient id="paint3_linear_336_1314" x1="296.698" y1="22.3786" x2="323.344" y2="56.5009" gradientUnits="userSpaceOnUse">
<stop stop-color="#65636F"/>
<stop offset="1"/>
</linearGradient>
<linearGradient id="paint4_linear_336_1314" x1="309" y1="26.5005" x2="309" y2="67.5005" gradientUnits="userSpaceOnUse">
<stop stop-color="#86ACD1"/>
<stop offset="1" stop-color="#6798C4"/>
</linearGradient>
</defs>
</svg>
