<svg width="110" height="110" viewBox="0 0 110 110" fill="none" xmlns="http://www.w3.org/2000/svg">
<ellipse cx="55.6164" cy="61.0145" rx="12.2394" ry="12.2394" transform="rotate(-90 55.6164 61.0145)" fill="#BFD8F0"/>
<mask id="path-2-inside-1_264_4247" fill="white">
<path d="M50.8592 24.6054C58.0602 23.6647 65.3784 24.8804 71.8885 28.0988C78.3985 31.3173 83.808 36.3939 87.4329 42.6868C91.0577 48.9796 92.7351 56.206 92.253 63.4522C91.7708 70.6983 89.1507 77.6388 84.7241 83.3959C80.2974 89.153 74.263 93.4681 67.3839 95.7956C60.5048 98.1231 53.09 98.3585 46.0771 96.4719C39.0643 94.5854 32.7683 90.6616 27.9854 85.1969C23.2026 79.7321 20.1476 72.9718 19.2069 65.7708L26.1035 64.8698C26.8661 70.7068 29.3424 76.1866 33.2192 80.6162C37.0961 85.0458 42.1995 88.2263 47.8839 89.7555C53.5684 91.2847 59.5787 91.0939 65.1547 89.2073C70.7308 87.3206 75.6221 83.8229 79.2103 79.1563C82.7984 74.4897 84.9222 68.864 85.313 62.9904C85.7039 57.1168 84.3442 51.2592 81.406 46.1584C78.4678 41.0576 74.083 36.9426 68.8061 34.3338C63.5291 31.725 57.5971 30.7395 51.7602 31.5021L50.8592 24.6054Z"/>
</mask>
<path d="M50.8592 24.6054C58.0602 23.6647 65.3784 24.8804 71.8885 28.0988C78.3985 31.3173 83.808 36.3939 87.4329 42.6868C91.0577 48.9796 92.7351 56.206 92.253 63.4522C91.7708 70.6983 89.1507 77.6388 84.7241 83.3959C80.2974 89.153 74.263 93.4681 67.3839 95.7956C60.5048 98.1231 53.09 98.3585 46.0771 96.4719C39.0643 94.5854 32.7683 90.6616 27.9854 85.1969C23.2026 79.7321 20.1476 72.9718 19.2069 65.7708L26.1035 64.8698C26.8661 70.7068 29.3424 76.1866 33.2192 80.6162C37.0961 85.0458 42.1995 88.2263 47.8839 89.7555C53.5684 91.2847 59.5787 91.0939 65.1547 89.2073C70.7308 87.3206 75.6221 83.8229 79.2103 79.1563C82.7984 74.4897 84.9222 68.864 85.313 62.9904C85.7039 57.1168 84.3442 51.2592 81.406 46.1584C78.4678 41.0576 74.083 36.9426 68.8061 34.3338C63.5291 31.725 57.5971 30.7395 51.7602 31.5021L50.8592 24.6054Z" fill="#5B85AB" stroke="#5B85AB" stroke-width="12.2394" mask="url(#path-2-inside-1_264_4247)"/>
<path d="M63.2516 13.0244L47.8008 28.1706L62.947 43.6214L63.2516 13.0244Z" fill="#BFD8F0" stroke="#5B85AB" stroke-width="6.6" stroke-linejoin="bevel"/>
<path d="M29.6627 62.6561C29.8866 66.2 27.1952 69.2544 23.6513 69.4783C20.1074 69.7022 17.0531 67.0108 16.8292 63.4669C16.6053 59.923 19.2967 56.8686 22.8405 56.6448C26.3844 56.4209 29.4388 59.1122 29.6627 62.6561Z" fill="#BFD8F0" stroke="#5B85AB" stroke-width="5.5"/>
</svg>
