<svg width="592" height="541" viewBox="0 0 592 541" fill="none" xmlns="http://www.w3.org/2000/svg">
<path d="M261.284 2L8.73654 254.548C-0.245521 263.53 -0.245508 278.093 8.73655 287.075L261.284 539.622M308.284 2L55.7365 254.548C46.7545 263.53 46.7545 278.093 55.7365 287.075L308.284 539.622M355.284 2L102.737 254.548C93.7545 263.53 93.7545 278.093 102.737 287.075L355.284 539.622M402.284 2L149.737 254.548C140.754 263.53 140.754 278.093 149.737 287.075L402.284 539.622M449.284 2L196.737 254.548C187.754 263.53 187.754 278.093 196.737 287.075L449.284 539.622M543.284 2L290.737 254.548C281.754 263.53 281.754 278.093 290.737 287.075L543.284 539.622M590.284 2L337.737 254.548C328.754 263.53 328.754 278.093 337.737 287.075L590.284 539.622M496.284 2L243.737 254.548C234.754 263.53 234.754 278.093 243.737 287.075L496.284 539.622" stroke="url(#paint0_linear_339_170)" stroke-opacity="0.8" stroke-width="3"/>
<defs>
<linearGradient id="paint0_linear_339_170" x1="-75.5" y1="271" x2="737.5" y2="271" gradientUnits="userSpaceOnUse">
<stop offset="0.150923" stop-color="#1D2226"/>
<stop offset="0.365368" stop-color="#FA6334"/>
<stop offset="0.476295" stop-color="#6523F0"/>
</linearGradient>
</defs>
</svg>
