<svg width="592" height="541" viewBox="0 0 592 541" fill="none" xmlns="http://www.w3.org/2000/svg">
<path d="M330.716 2L583.263 254.548C592.246 263.53 592.246 278.093 583.263 287.075L330.716 539.622M283.716 2L536.263 254.548C545.246 263.53 545.246 278.093 536.263 287.075L283.716 539.622M236.716 2L489.263 254.548C498.246 263.53 498.246 278.093 489.263 287.075L236.716 539.622M189.716 2L442.263 254.548C451.246 263.53 451.246 278.093 442.263 287.075L189.716 539.622M142.716 2L395.263 254.548C404.246 263.53 404.246 278.093 395.263 287.075L142.716 539.622M48.7158 2L301.263 254.548C310.246 263.53 310.246 278.093 301.263 287.075L48.7158 539.622M1.71576 2L254.263 254.548C263.246 263.53 263.246 278.093 254.263 287.075L1.71576 539.622M95.7158 2L348.263 254.548C357.246 263.53 357.246 278.093 348.263 287.075L95.7158 539.622" stroke="url(#paint0_linear_339_167)" stroke-opacity="0.8" stroke-width="3"/>
<defs>
<linearGradient id="paint0_linear_339_167" x1="667.5" y1="271" x2="-145.5" y2="271" gradientUnits="userSpaceOnUse">
<stop offset="0.150923" stop-color="#1D2226"/>
<stop offset="0.365368" stop-color="#FA6334"/>
<stop offset="0.476295" stop-color="#6523F0"/>
</linearGradient>
</defs>
</svg>
