<svg width="487" height="125" viewBox="0 0 487 125" fill="none" xmlns="http://www.w3.org/2000/svg">
<mask id="mask0_264_4216" style="mask-type:alpha" maskUnits="userSpaceOnUse" x="1" y="0" width="486" height="125">
<path d="M447.871 0.850586H42.0194C41.0237 0.850586 40.0929 1.3446 39.5349 2.16921L1.58446 58.2481C0.924197 59.2238 0.896084 60.4955 1.51259 61.4994L39.549 123.436C40.0947 124.324 41.0627 124.866 42.1054 124.866H447.871C451.155 124.866 454.202 123.019 455.914 119.991L485.223 68.1762C487.069 64.9119 487.069 60.8045 485.223 57.5401L455.914 5.72564C454.202 2.69733 451.155 0.850586 447.871 0.850586Z" fill="#D9D9D9"/>
</mask>
<g mask="url(#mask0_264_4216)">
<path d="M26 0.850586H575V124.851H26V0.850586Z" fill="url(#paint0_linear_264_4216)"/>
</g>
<defs>
<linearGradient id="paint0_linear_264_4216" x1="26" y1="61.9252" x2="575" y2="61.9252" gradientUnits="userSpaceOnUse">
<stop stop-color="white" stop-opacity="0"/>
<stop offset="1" stop-color="white" stop-opacity="0.32"/>
</linearGradient>
</defs>
</svg>
