<svg width="237" height="264" viewBox="0 0 237 264" fill="none" xmlns="http://www.w3.org/2000/svg">
<g opacity="0.42" clip-path="url(#clip0_264_4256)">
<path d="M0.33252 220.483L0.332522 287.166" stroke="#B4B4B4"/>
<path d="M215.333 240H0.332509" stroke="#B4B4B4"/>
<path d="M220.333 177H127.779" stroke="#B4B4B4"/>
<path d="M127.333 102L127.333 219" stroke="#B4B4B4"/>
<path d="M220.333 217H0.332509" stroke="#B4B4B4" stroke-width="5"/>
<path d="M220.333 0L220.333 276.49" stroke="#B4B4B4"/>
<circle cx="219.5" cy="239.5" r="4" fill="#616161" stroke="#B4B4B4"/>
<path d="M220.333 201L205.333 216" stroke="#B4B4B4"/>
<path d="M220.333 189.098L190.333 218" stroke="#B4B4B4"/>
<path d="M140.393 176.94L127.621 189.712" stroke="#B4B4B4"/>
<path d="M148.333 177L127.333 198" stroke="#B4B4B4"/>
<path d="M156.531 177.05L127.333 206" stroke="#B4B4B4"/>
<path d="M167.333 177L129.333 215" stroke="#B4B4B4"/>
<path d="M178.333 177L140.333 215" stroke="#B4B4B4"/>
<path d="M188.282 177.05L150.236 215.097" stroke="#B4B4B4"/>
<path d="M198.333 177L160.333 215" stroke="#B4B4B4"/>
<path d="M208.528 177L170.347 215" stroke="#B4B4B4"/>
<path d="M220.057 177.275L181.333 216" stroke="#B4B4B4"/>
<path d="M132.073 177.259L127.187 182.146" stroke="#B4B4B4"/>
<path d="M440.333 148H220.333" stroke="#B4B4B4"/>
</g>
<defs>
<clipPath id="clip0_264_4256">
<rect width="237" height="264" fill="white"/>
</clipPath>
</defs>
</svg>
