<svg width="236" height="220" viewBox="0 0 236 220" fill="none" xmlns="http://www.w3.org/2000/svg">
<rect x="15" y="31" width="220.332" height="189" rx="10" fill="url(#paint0_linear_336_470)"/>
<path d="M48.4692 67.7531L43.8934 72.3289C43.592 72.6303 43.1033 72.6303 42.8019 72.3289L38.2261 67.753C37.7399 67.2669 38.0842 66.4355 38.7718 66.4355L47.9234 66.4355C48.611 66.4355 48.9554 67.2669 48.4692 67.7531Z" fill="white"/>
<path fill-rule="evenodd" clip-rule="evenodd" d="M92.8848 83.6784H66.7487L65.6685 82.6034V58.7445L66.7487 57.6694H77.6562L78.4229 57.9815L80.2698 59.8195H92.8848L94 60.9292V66.3391H98.6348L99.6802 67.6916L93.9303 82.8808L92.8848 83.6784ZM77.2032 59.8195H67.8639L67.8987 75.9104L70.0942 69.2521L71.1048 68.4892H81.5592L83.4061 66.6512L84.1728 66.3391H91.8045V62.0043H79.8168L79.0501 61.6922L77.2032 59.8195Z" fill="white"/>
<rect width="97" height="24" transform="translate(111 58)" fill="#EDEDED"/>
<path d="M63.4692 120.753L58.8934 125.329C58.592 125.63 58.1033 125.63 57.8019 125.329L53.2261 120.753C52.7399 120.267 53.0842 119.436 53.7718 119.436L62.9234 119.436C63.611 119.436 63.9554 120.267 63.4692 120.753Z" fill="white"/>
<path d="M106.871 117.063L94.5226 119.435H83.7178V117.063V113.261H91.4355L106.871 114.805V117.063Z" fill="white"/>
<path d="M106.18 113.153L106.091 113.068H105.968H94.1236L92.717 111.735L92.6729 111.693L92.6163 111.671L91.9953 111.43L91.9415 111.409H91.8837H83.0493H82.9262L82.8369 111.494L81.9619 112.323L81.8656 112.414V112.547V130.955V131.087L81.9619 131.179L82.8369 132.008L82.9262 132.093H83.0493H105.996H106.119L106.209 132.008L107.084 131.179L107.18 131.087V130.955V114.233V114.1L107.084 114.009L106.18 113.153ZM104.779 115.398L104.761 116.412H93.6054H93.5417L93.4833 116.437L92.8623 116.705L92.8105 116.727L92.77 116.766L91.3638 118.125H84.233V113.712H91.3655L92.7721 115.045L92.8138 115.085L92.8668 115.107L93.516 115.374L93.5725 115.398H93.6336H104.779Z" fill="url(#paint1_linear_336_470)" stroke="white" stroke-width="0.61742"/>
<path d="M106.871 130.955L105.996 131.784H83.0493L82.1743 130.955V129.469H106.871V130.955Z" fill="#29435D"/>
<rect width="96" height="23" transform="translate(121 111)" fill="#737D86"/>
<path d="M63.4692 173.753L58.8934 178.329C58.592 178.63 58.1033 178.63 57.8019 178.329L53.2261 173.753C52.7399 173.267 53.0842 172.436 53.7718 172.436L62.9234 172.436C63.611 172.436 63.9554 173.267 63.4692 173.753Z" fill="white"/>
<path fill-rule="evenodd" clip-rule="evenodd" d="M83.7179 166.261C83.7179 164.556 85.1 163.174 86.805 163.174H104.581V179.161L104.581 179.182L104.581 182.089L104.581 182.104V185.971C104.581 186.823 103.89 187.514 103.037 187.514H94.1353V189.239H93.6624L92.2497 187.514H90.8008L89.4064 189.239H88.9335V187.514H86.8049C85.1 187.514 83.7178 186.132 83.7178 184.427V183.685L83.7178 183.676V176.187L83.7179 176.172V166.261ZM94.1353 185.971V184.037H88.9335V185.971H86.8049C85.9525 185.971 85.2614 185.28 85.2614 184.427V183.647C85.2614 182.795 85.9525 182.104 86.8049 182.104H103.037V185.971H94.1353ZM88.9335 169.259C88.9335 168.779 89.3227 168.39 89.8028 168.39H100.234C100.714 168.39 101.103 168.779 101.103 169.259C101.103 169.739 100.714 170.129 100.234 170.129H89.8028C89.3227 170.129 88.9335 169.739 88.9335 169.259ZM88.9334 172.302C88.9334 172.062 89.128 171.867 89.368 171.867H100.669C100.909 171.867 101.103 172.062 101.103 172.302C101.103 172.542 100.909 172.736 100.669 172.736H89.368C89.128 172.736 88.9334 172.542 88.9334 172.302Z" fill="#79A3CB"/>
<rect width="96" height="23" transform="translate(121 164)" fill="#737D86"/>
<rect x="0.5" y="0.5" width="60" height="60" rx="3.5" fill="white"/>
<rect x="0.5" y="0.5" width="60" height="60" rx="3.5" stroke="#AEAEAE"/>
<path d="M48.8296 12.2075L48.8296 24.4149L12.2073 24.4149L12.2073 12.2075L48.8296 12.2075Z" fill="#BFD8F0" stroke="#5B85AB" stroke-width="3.05186" stroke-linejoin="bevel"/>
<rect x="48.8296" y="30.5186" width="6.10371" height="24.4148" transform="rotate(90 48.8296 30.5186)" fill="white" stroke="#5B85AB" stroke-width="3.05186" stroke-linejoin="bevel"/>
<rect x="48.8296" y="42.7261" width="6.10371" height="18.3111" transform="rotate(90 48.8296 42.7261)" fill="white" stroke="#5B85AB" stroke-width="3.05186" stroke-linejoin="bevel"/>
<path d="M18.311 45.778H16.7851L18.311 47.304V45.778ZM16.7851 24.415V33.5706H19.837V24.415H16.7851ZM18.311 35.0965H24.4147V32.0447H18.311V35.0965ZM16.7851 33.5706V45.778H19.837V33.5706H16.7851ZM18.311 47.304H30.5185V44.2521H18.311V47.304Z" fill="#5B85AB"/>
<defs>
<linearGradient id="paint0_linear_336_470" x1="19.9296" y1="231.813" x2="255.127" y2="195.082" gradientUnits="userSpaceOnUse">
<stop stop-color="#36363E"/>
<stop offset="1" stop-color="#35353E"/>
</linearGradient>
<linearGradient id="paint1_linear_336_470" x1="94.5227" y1="111.718" x2="94.5227" y2="131.784" gradientUnits="userSpaceOnUse">
<stop stop-color="#FFA373"/>
<stop offset="1" stop-color="#F5681F"/>
</linearGradient>
</defs>
</svg>
