<svg width="20" height="20" viewBox="0 0 20 20" fill="none" xmlns="http://www.w3.org/2000/svg">
<path d="M15.625 12.25V19V12.25ZM12.25 15.625H19H12.25ZM3.25 7.75H5.5C6.09674 7.75 6.66903 7.51295 7.09099 7.09099C7.51295 6.66903 7.75 6.09674 7.75 5.5V3.25C7.75 2.65326 7.51295 2.08097 7.09099 1.65901C6.66903 1.23705 6.09674 1 5.5 1H3.25C2.65326 1 2.08097 1.23705 1.65901 1.65901C1.23705 2.08097 1 2.65326 1 3.25V5.5C1 6.09674 1.23705 6.66903 1.65901 7.09099C2.08097 7.51295 2.65326 7.75 3.25 7.75ZM14.5 7.75H16.75C17.3467 7.75 17.919 7.51295 18.341 7.09099C18.7629 6.66903 19 6.09674 19 5.5V3.25C19 2.65326 18.7629 2.08097 18.341 1.65901C17.919 1.23705 17.3467 1 16.75 1H14.5C13.9033 1 13.331 1.23705 12.909 1.65901C12.4871 2.08097 12.25 2.65326 12.25 3.25V5.5C12.25 6.09674 12.4871 6.66903 12.909 7.09099C13.331 7.51295 13.9033 7.75 14.5 7.75ZM3.25 19H5.5C6.09674 19 6.66903 18.7629 7.09099 18.341C7.51295 17.919 7.75 17.3467 7.75 16.75V14.5C7.75 13.9033 7.51295 13.331 7.09099 12.909C6.66903 12.4871 6.09674 12.25 5.5 12.25H3.25C2.65326 12.25 2.08097 12.4871 1.65901 12.909C1.23705 13.331 1 13.9033 1 14.5V16.75C1 17.3467 1.23705 17.919 1.65901 18.341C2.08097 18.7629 2.65326 19 3.25 19Z" stroke="white" stroke-width="2" stroke-linecap="round" stroke-linejoin="round"/>
</svg>
