<svg width="23" height="19" viewBox="0 0 23 19" fill="none" xmlns="http://www.w3.org/2000/svg">
<path d="M16.75 18H22V15.875C22 15.2126 21.7959 14.5666 21.4163 14.0269C21.0367 13.4872 20.5004 13.0806 19.8819 12.8636C19.2634 12.6466 18.5934 12.63 17.9651 12.8161C17.3368 13.0022 16.7815 13.3817 16.3762 13.9019M16.75 18H6.25M16.75 18V15.875C16.75 15.178 16.6177 14.5118 16.3762 13.9019M16.3762 13.9019C15.9863 12.9159 15.3133 12.0707 14.4442 11.4753C13.5751 10.88 12.5496 10.5618 11.5 10.5618C10.4504 10.5618 9.42495 10.88 8.5558 11.4753C7.68666 12.0707 7.01372 12.9159 6.6238 13.9019M6.25 18H1V15.875C1.00005 15.2126 1.20405 14.5666 1.58365 14.0269C1.96326 13.4872 2.4996 13.0806 3.11811 12.8636C3.73663 12.6466 4.4066 12.63 5.03487 12.8161C5.66315 13.0022 6.21853 13.3817 6.6238 13.9019M6.25 18V15.875C6.25 15.178 6.3823 14.5118 6.6238 13.9019M14.65 4.1875C14.65 5.03288 14.3181 5.84363 13.7274 6.4414C13.1366 7.03918 12.3354 7.375 11.5 7.375C10.6646 7.375 9.86335 7.03918 9.27261 6.4414C8.68187 5.84363 8.35 5.03288 8.35 4.1875C8.35 3.34212 8.68187 2.53137 9.27261 1.9336C9.86335 1.33583 10.6646 1 11.5 1C12.3354 1 13.1366 1.33583 13.7274 1.9336C14.3181 2.53137 14.65 3.34212 14.65 4.1875ZM20.95 7.375C20.95 7.93859 20.7287 8.47909 20.3349 8.8776C19.9411 9.27612 19.407 9.5 18.85 9.5C18.293 9.5 17.7589 9.27612 17.3651 8.8776C16.9712 8.47909 16.75 7.93859 16.75 7.375C16.75 6.81141 16.9712 6.27091 17.3651 5.8724C17.7589 5.47388 18.293 5.25 18.85 5.25C19.407 5.25 19.9411 5.47388 20.3349 5.8724C20.7287 6.27091 20.95 6.81141 20.95 7.375ZM6.25 7.375C6.25 7.93859 6.02875 8.47909 5.63492 8.8776C5.2411 9.27612 4.70695 9.5 4.15 9.5C3.59305 9.5 3.0589 9.27612 2.66508 8.8776C2.27125 8.47909 2.05 7.93859 2.05 7.375C2.05 6.81141 2.27125 6.27091 2.66508 5.8724C3.0589 5.47388 3.59305 5.25 4.15 5.25C4.70695 5.25 5.2411 5.47388 5.63492 5.8724C6.02875 6.27091 6.25 6.81141 6.25 7.375Z" stroke="white" stroke-width="2" stroke-linecap="round" stroke-linejoin="round"/>
</svg>
